<svg width="13" height="13" viewBox="0 0 13 13" fill="none" xmlns="http://www.w3.org/2000/svg">
<path d="M12.449 1.02578C13.0051 1.58107 13.0051 2.48142 12.449 3.03672L11.6873 3.80097L9.19902 1.3132L9.96328 0.549959C10.5193 -0.00542262 11.4182 -0.00542262 11.9742 0.549959L12.449 1.02578ZM4.37734 6.13691L8.62519 1.88754L11.1135 4.3748L6.86309 8.62265C6.7082 8.78008 6.51777 8.89687 6.30703 8.96797L4.05234 9.71953C3.81113 9.79062 3.59277 9.73476 3.42773 9.54941C3.26523 9.40722 3.20937 9.16601 3.28047 8.94765L4.03203 6.69297C4.10312 6.48222 4.21992 6.29179 4.37734 6.13691ZM4.875 1.60215C5.32441 1.60215 5.6875 1.98885 5.6875 2.41465C5.6875 2.88691 5.32441 3.22715 4.875 3.22715H2.4375C1.98885 3.22715 1.625 3.61308 1.625 4.03965V10.5625C1.625 11.0119 1.98885 11.375 2.4375 11.375H8.9375C9.38691 11.375 9.75 11.0119 9.75 10.5625V8.10215C9.75 7.67558 10.1131 7.28965 10.5625 7.28965C11.0119 7.28965 11.375 7.67558 11.375 8.10215V10.5625C11.375 11.9082 10.2832 13 8.9375 13H2.4375C1.09129 13 0 11.9082 0 10.5625V4.03965C0 2.69394 1.09129 1.60215 2.4375 1.60215H4.875Z" fill="#3471FF"/>
</svg>
