<svg width="14" height="13" viewBox="0 0 14 13" fill="none" xmlns="http://www.w3.org/2000/svg">
<path d="M13.9174 6.86309L11.584 11.7381C11.4528 12.0148 11.183 12.1875 10.867 12.1875H1.55556C0.696354 12.1875 0 11.4598 0 10.5625V2.4375C0 1.5402 0.696354 0.8125 1.55556 0.8125H4.41146C4.82392 0.8125 5.21962 0.983684 5.51153 1.28857L6.7059 2.4375H10.1111C10.9703 2.4375 11.6667 3.1652 11.6667 4.0625V4.875H10.5V4.0625C10.5 3.83845 10.3255 3.65625 10.1111 3.65625H6.22222L4.68611 2.15033C4.61319 2.0734 4.51597 2.03125 4.41146 2.03125H1.55556C1.34118 2.03125 1.16667 2.21355 1.16667 2.4375V9.75L2.89625 6.13691C3.02847 5.86016 3.29826 5.6875 3.59236 5.6875H13.2222C13.7983 5.6875 14.175 6.32227 13.9174 6.86309Z" fill="#3471FF"/>
</svg>
